<svg width="11" height="12" viewBox="0 0 11 12" fill="none" xmlns="http://www.w3.org/2000/svg">
<path d="M7.4085 1.20578C7.15 1.0572 6.8035 1.1715 6.6605 1.45151C6.622 1.53152 6.6 1.62295 6.6 1.71439V3.19447L6.2095 2.78873C6.15879 2.73632 6.11859 2.67397 6.09121 2.60531C6.06383 2.53665 6.04982 2.46303 6.05 2.38871V0H4.95V2.383C4.95 2.53729 4.895 2.68016 4.7905 2.78873L4.4 3.19447V1.71439C4.4 1.39437 4.147 1.14292 3.85 1.14292C3.7565 1.14292 3.6685 1.16578 3.5915 1.20578C1.496 2.28585 0 5.12601 0 8.44049C0 9.52627 0.1815 10.6006 0.55 11.6121C0.576506 11.6914 0.619383 11.7637 0.675623 11.8239C0.731863 11.8842 0.800106 11.9309 0.875567 11.9609C0.951028 11.9908 1.03188 12.0032 1.11245 11.9973C1.19303 11.9913 1.27137 11.9671 1.342 11.9264L4.125 10.3263C4.2955 10.2292 4.4 10.0349 4.4 9.82343V4.80599L5.115 4.06881C5.16588 4.01583 5.22632 3.9738 5.29286 3.94512C5.35939 3.91645 5.43072 3.90169 5.50275 3.90169C5.57478 3.90169 5.64611 3.91645 5.71264 3.94512C5.77918 3.9738 5.83962 4.01583 5.8905 4.06881L6.6 4.81171V9.82914C6.6 10.0349 6.7155 10.2292 6.875 10.332L9.669 11.9321C9.73318 11.9679 9.80355 11.9901 9.87604 11.9973C9.94853 12.0046 10.0217 11.9969 10.0913 11.9746C10.1609 11.9522 10.2255 11.9158 10.2814 11.8673C10.3373 11.8188 10.3834 11.7592 10.417 11.6921C10.428 11.6692 10.45 11.6407 10.45 11.6121C10.8185 10.6006 11 9.52627 11 8.44049C11 5.12601 9.5095 2.28585 7.4085 1.20578Z" fill="white"/>
</svg>
