<svg width="12" height="16" viewBox="0 0 12 16" fill="none" xmlns="http://www.w3.org/2000/svg">
<path d="M5.54167 0C6.17156 0 6.77565 0.250223 7.22105 0.695621C7.66644 1.14102 7.91667 1.74511 7.91667 2.375V7.125C7.91667 7.75489 7.66644 8.35898 7.22105 8.80438C6.77565 9.24978 6.17156 9.5 5.54167 9.5C4.91178 9.5 4.30769 9.24978 3.86229 8.80438C3.41689 8.35898 3.16667 7.75489 3.16667 7.125V2.375C3.16667 1.74511 3.41689 1.14102 3.86229 0.695621C4.30769 0.250223 4.91178 0 5.54167 0M11.0833 7.125C11.0833 9.91958 9.01708 12.2233 6.33333 12.6113V15.0417H4.75V12.6113C2.06625 12.2233 0 9.91958 0 7.125H1.58333C1.58333 8.17482 2.00037 9.18163 2.7427 9.92396C3.48503 10.6663 4.49185 11.0833 5.54167 11.0833C6.59148 11.0833 7.5983 10.6663 8.34063 9.92396C9.08296 9.18163 9.5 8.17482 9.5 7.125H11.0833Z" fill="white"/>
</svg>
