<svg width="14" height="17" viewBox="0 0 14 17" fill="none" xmlns="http://www.w3.org/2000/svg">
<path d="M7 6.31858C6.825 6.10367 6.59896 5.93517 6.32188 5.8131C6.04479 5.6916 5.74583 5.63085 5.425 5.63085C4.9 5.63085 4.44792 5.81711 4.06875 6.18963C3.68958 6.56216 3.5 7.00632 3.5 7.52212C3.5 7.96629 3.61667 8.37463 3.85 8.74716C4.08333 9.11968 4.62292 9.70712 5.46875 10.5095L6.40937 11.3692C6.56979 11.5268 6.76667 11.6056 7 11.6056C7.23333 11.6056 7.43021 11.5268 7.59063 11.3692L8.50938 10.531C9.34063 9.74294 9.88021 9.15177 10.1281 8.75747C10.376 8.36374 10.5 7.95196 10.5 7.52212C10.5 7.00632 10.3104 6.56216 9.93125 6.18963C9.55208 5.81711 9.1 5.63085 8.575 5.63085C8.26875 5.63085 7.97358 5.6916 7.6895 5.8131C7.40483 5.93517 7.175 6.10367 7 6.31858ZM7 17H6.78125C6.70833 17 6.64271 16.9857 6.58437 16.957C4.67396 16.3696 3.09896 15.2053 1.85938 13.4642C0.619792 11.7236 0 9.80025 0 7.69406V3.63211C0 3.27391 0.105875 2.95154 0.317625 2.66498C0.528792 2.37842 0.802083 2.17067 1.1375 2.04172L6.3875 0.107459C6.59167 0.0358196 6.79583 0 7 0C7.20417 0 7.40833 0.0358196 7.6125 0.107459L12.8625 2.04172C13.1979 2.17067 13.4715 2.37842 13.6833 2.66498C13.8944 2.95154 14 3.27391 14 3.63211V7.69406C14 9.80025 13.3802 11.7236 12.1406 13.4642C10.901 15.2053 9.32604 16.3696 7.41563 16.957C7.34271 16.9857 7.20417 17 7 17Z" fill="white"/>
</svg>
