<svg width="16" height="14" viewBox="0 0 16 14" fill="none" xmlns="http://www.w3.org/2000/svg">
<path d="M4.95089 7.7696C6.59707 7.7696 7.83891 6.52775 7.83891 4.88158C7.83891 3.23541 6.59707 1.99356 4.95089 1.99356C3.30472 1.99356 2.06287 3.23541 2.06287 4.88158C2.06287 6.52775 3.30472 7.7696 4.95089 7.7696ZM5.77604 8.55184H4.12574C1.85081 8.55184 0 10.4027 0 12.6776V13.5027H9.90179V12.6776C9.90179 10.4027 8.05098 8.55184 5.77604 8.55184ZM13.5027 0L12.336 1.16676C13.426 2.25843 14.0275 3.70904 14.0275 5.25125C14.0275 6.79345 13.426 8.24406 12.336 9.33574L13.5027 10.5025C14.9055 9.09892 15.6778 7.23408 15.6778 5.25125C15.6778 3.26842 14.9055 1.40358 13.5027 0Z" fill="white"/>
<path d="M10.1683 2.33351L9.00159 3.50192C9.46945 3.96813 9.72689 4.58947 9.72689 5.25124C9.72689 5.91301 9.46945 6.53434 9.00159 7.00055L10.1683 8.16896C10.9473 7.39002 11.3772 6.35446 11.3772 5.25124C11.3772 4.14801 10.9473 3.11245 10.1683 2.33351Z" fill="white"/>
</svg>
