<svg width="20" height="12" viewBox="0 0 20 12" fill="none" xmlns="http://www.w3.org/2000/svg">
<path d="M0.958333 0H18.2083C18.4625 0 18.7063 0.0702379 18.886 0.195262C19.0657 0.320286 19.1667 0.489856 19.1667 0.666667V11.3333C19.1667 11.5101 19.0657 11.6797 18.886 11.8047C18.7063 11.9298 18.4625 12 18.2083 12H0.958333C0.704167 12 0.460412 11.9298 0.280689 11.8047C0.100967 11.6797 0 11.5101 0 11.3333V0.666667C0 0.489856 0.100967 0.320286 0.280689 0.195262C0.460412 0.0702379 0.704167 0 0.958333 0ZM17.25 6H1.91667V10.6667H17.25V6ZM17.25 3.33333V1.33333H1.91667V3.33333H17.25Z" fill="white"/>
</svg>
